# xmcd
#
# Track frame offsets: 
#        150
#        8571
#        15594
#        26190
#        38485
#        48795
#        64265
#        78093
#        91943
#        105811
#        120153
#        134568
#        147865
#        159872
#        174858
#        186392
#        200879
#        216267
#
# Disc length: 3062 seconds
#
# Revision: 1
# Processed by: cddbd v1.5.2PL0 Copyright (c) Steve Scherf et al.
# Submitted via: ExactAudioCopy v0.95b4
#
DISCID=dd0bf412
DTITLE=Frank Sinatra - Personality
DYEAR=2002
DGENRE=
TTITLE0=Somebody loves me
TTITLE1=Exactly like you
TTITLE2=Personality
TTITLE3=Tea for two
TTITLE4=Make believe
TTITLE5=The night we called it a day
TTITLE6=Where is my bess
TTITLE7=You'll never know
TTITLE8=Dream when you're feeling blue
TTITLE9=Put your dreams away
TTITLE10=Day by day
TTITLE11=Oh! What seemed to be
TTITLE12=Five minutes more
TTITLE13=The things we did last summer
TTITLE14=The coffee song
TTITLE15=Time after time
TTITLE16=Mam'selle
TTITLE17=Fools rush In
EXTD=
EXTT0=
EXTT1=
EXTT2=
EXTT3=
EXTT4=
EXTT5=
EXTT6=
EXTT7=
EXTT8=
EXTT9=
EXTT10=
EXTT11=
EXTT12=
EXTT13=
EXTT14=
EXTT15=
EXTT16=
EXTT17=
PLAYORDER=
